<?xml version="1.0" encoding="UTF-8" standalone="no"?>
<!-- Created with Inkscape (http://www.inkscape.org/) -->

<svg
   xmlns:dc="http://purl.org/dc/elements/1.1/"
   xmlns:cc="http://creativecommons.org/ns#"
   xmlns:rdf="http://www.w3.org/1999/02/22-rdf-syntax-ns#"
   xmlns:svg="http://www.w3.org/2000/svg"
   xmlns="http://www.w3.org/2000/svg"
   xmlns:sodipodi="http://sodipodi.sourceforge.net/DTD/sodipodi-0.dtd"
   xmlns:inkscape="http://www.inkscape.org/namespaces/inkscape"
   width="24"
   height="24"
   viewBox="0 0 24 24"
   id="svg4320"
   version="1.1"
   inkscape:version="0.91 r13725"
   sodipodi:docname="lb-logo.svg">
  <defs
     id="defs4322" />
  <sodipodi:namedview
     id="base"
     pagecolor="#ffffff"
     bordercolor="#666666"
     borderopacity="1.0"
     inkscape:pageopacity="0.0"
     inkscape:pageshadow="2"
     inkscape:zoom="11.2"
     inkscape:cx="5.2323514"
     inkscape:cy="6.2265999"
     inkscape:document-units="px"
     inkscape:current-layer="svg4320"
     showgrid="false"
     units="px"
     inkscape:window-width="1920"
     inkscape:window-height="982"
     inkscape:window-x="0"
     inkscape:window-y="24"
     inkscape:window-maximized="1" />
  <metadata
     id="metadata4325">
    <rdf:RDF>
      <cc:Work
         rdf:about="">
        <dc:format>image/svg+xml</dc:format>
        <dc:type
           rdf:resource="http://purl.org/dc/dcmitype/StillImage" />
        <dc:title />
      </cc:Work>
    </rdf:RDF>
  </metadata>
  <g
     inkscape:label="logo"
     inkscape:groupmode="logo"
     id="lb-logo"
     transform="translate(0,-1028.3622)"
     style="fill:#4285f4;fill-opacity:1">
    <path
       id="path3344"
       style="color:#000000;font-style:normal;font-variant:normal;font-weight:normal;font-stretch:normal;font-size:medium;line-height:normal;font-family:sans-serif;text-indent:0;text-align:start;text-decoration:none;text-decoration-line:none;text-decoration-style:solid;text-decoration-color:#000000;letter-spacing:normal;word-spacing:normal;text-transform:none;direction:ltr;block-progression:tb;writing-mode:lr-tb;baseline-shift:baseline;text-anchor:start;white-space:normal;clip-rule:nonzero;display:inline;overflow:visible;visibility:visible;opacity:1;isolation:auto;mix-blend-mode:normal;color-interpolation:sRGB;color-interpolation-filters:linearRGB;solid-color:#000000;solid-opacity:1;fill:#4285f4;fill-opacity:1;fill-rule:nonzero;stroke:none;stroke-width:41.90000153;stroke-linecap:butt;stroke-linejoin:miter;stroke-miterlimit:4;stroke-dasharray:none;stroke-dashoffset:0;stroke-opacity:1;color-rendering:auto;image-rendering:auto;shape-rendering:auto;text-rendering:auto;enable-background:accumulate"
       d="m 11.994627,1028.3489 c -6.4103435,0 -11.60272611,5.3504 -11.60272611,11.9118 0,6.5614 5.19238261,11.9118 11.60272611,11.9118 6.410028,0 11.602408,-5.3504 11.602408,-11.9118 0,-6.5614 -5.19238,-11.9118 -11.602408,-11.9118 z m 0,1.2956 c 5.690178,0 10.306934,4.7357 10.306934,10.6162 0,5.8805 -4.616756,10.6162 -10.306934,10.6162 -5.6901768,0 -10.306934,-4.7357 -10.306934,-10.6162 0,-5.8805 4.6167572,-10.6162 10.306934,-10.6162 z m 0.662032,8.1366 q 0.307827,-0.1995 0.924115,-0.4169 0.634394,-0.2175 1.449865,-0.2175 1.014649,0 1.793904,0.3625 0.797361,0.3625 1.34122,1.0149 0.543541,0.6524 0.815469,1.5585 0.290036,0.906 0.290036,1.9934 0,1.1417 -0.344359,2.066 -0.32625,0.9062 -0.942537,1.5404 -0.615971,0.6342 -1.485762,0.9785 -0.87011,0.3445 -1.957508,0.3445 -1.177935,0 -2.083941,-0.1632 -0.906007,-0.1631 -1.486079,-0.3262 l 0,-13.5011 1.685577,-0.2901 0,5.0563 z m 0,7.5388 q 0.253505,0.073 0.706508,0.145 0.471427,0.054 1.159828,0.054 1.359327,0 2.174796,-0.888 0.815469,-0.9061 0.815469,-2.5552 0,-0.725 -0.144859,-1.3592 -0.145176,-0.6343 -0.471111,-1.0874 -0.326251,-0.4712 -0.852002,-0.7249 -0.507325,-0.2719 -1.232257,-0.2719 -0.688718,0 -1.268472,0.2357 -0.580073,0.2356 -0.8879,0.4893 l 0,5.9622 z m -3.8136752,1.6491 q -1.558509,-0.036 -2.2110125,-0.6704 -0.6525021,-0.6344 -0.6525021,-1.9754 l 0,-11.3083 1.6855788,-0.2901 0,11.3265 q 0,0.4169 0.072429,0.6887 0.07243,0.2718 0.2353966,0.435 0.1632852,0.1631 0.4352136,0.2537 0.2716111,0.073 0.6702921,0.1269 l -0.2353954,1.4134 z"
       inkscape:connector-curvature="0" />
  </g>
</svg>
